<?xml version="1.0" standalone="no"?>
<!DOCTYPE svg PUBLIC "-//W3C//DTD SVG 1.1//EN" "http://www.w3.org/Graphics/SVG/1.1/DTD/svg11.dtd" >
<!--
2013-9-30: Created.
-->
<svg>
<metadata>
Created by iconfont
</metadata>
<defs>

<font id="iconfont" horiz-adv-x="1024" >
  <font-face
    font-family="iconfont"
    font-weight="500"
    font-stretch="normal"
    units-per-em="1024"
    ascent="896"
    descent="-128"
  />
    <missing-glyph />
    
    <glyph glyph-name="x" unicode="x" horiz-adv-x="1001"
d="M281 543q-27 -1 -53 -1h-83q-18 0 -36.5 -6t-32.5 -18.5t-23 -32t-9 -45.5v-76h912v41q0 16 -0.5 30t-0.5 18q0 13 -5 29t-17 29.5t-31.5 22.5t-49.5 9h-133v-97h-438v97zM955 310v-52q0 -23 0.5 -52t0.5 -58t-10.5 -47.5t-26 -30t-33 -16t-31.5 -4.5q-14 -1 -29.5 -0.5
t-29.5 0.5h-32l-45 128h-439l-44 -128h-29h-34q-20 0 -45 1q-25 0 -41 9.5t-25.5 23t-13.5 29.5t-4 30v167h911zM163 247q-12 0 -21 -8.5t-9 -21.5t9 -21.5t21 -8.5q13 0 22 8.5t9 21.5t-9 21.5t-22 8.5zM316 123q-8 -26 -14 -48q-5 -19 -10.5 -37t-7.5 -25t-3 -15t1 -14.5
t9.5 -10.5t21.5 -4h37h67h81h80h64h36q23 0 34 12t2 38q-5 13 -9.5 30.5t-9.5 34.5q-5 19 -11 39h-368zM336 498v228q0 11 2.5 23t10 21.5t20.5 15.5t34 6h188q31 0 51.5 -14.5t20.5 -52.5v-227h-327z" />
    

    
    <glyph glyph-name="home_icon" unicode="&#58903;" d="M989.798569 512.694394H606.492963V896H413.914301v-383.305606H30.608696v-192.578662h64.810126v-448.115732h831.421338V320.115732h64.810127V512.694394z m-127.768535-575.884267H734.261499V129.388788h-64.810127v-192.578661h-127.768535V129.388788h-64.810127v-192.578661h-127.768535V129.388788h-64.810127v-192.578661H158.377231V320.115732h703.652803v-383.305605zM932.395314 377.518987l-836.976492 7.406872v-7.406872h-7.406871v75.920434h383.305605V838.596745h70.365281v-383.305606h390.712477V377.518987z m0 0"  horiz-adv-x="1024" />

    
    <glyph glyph-name="my_confirm" unicode="&#58904;" d="M1012.037383 486.878505v370.841121c-7.17757 26.317757-26.317757 35.88785-38.280374 35.887851l-935.476635 2.392523c-23.925234-2.392523-35.88785-23.925234-38.280374-35.88785v-949.831776c2.392523-21.53271 23.925234-33.495327 35.88785-38.280374H976.149533c31.102804 7.17757 35.88785 28.71028 35.88785 38.280374v145.943925h-78.953271v-90.915888c0-7.17757-9.570093-11.962617-14.35514-14.35514h-825.420561c-4.785047 0-11.962617 9.570093-14.35514 14.35514V805.084112c0 4.785047 9.570093 9.570093 14.35514 11.962617h825.420561c9.570093 0 11.962617-11.962617 14.35514-14.35514v-315.813084h78.953271zM189.009346 592.149533h636.411215v-105.271028h-636.411215zM1079.028037 419.88785c-21.53271 19.140187-55.028037 4.785047-59.813084 2.392524h-2.392523l-227.28972-229.682243-98.093458 122.018691-4.785046 2.392524c-33.495327 11.962617-55.028037 9.570093-69.383178-4.785047-19.140187-21.53271-2.392523-62.205607 0-66.990654l107.663551-133.981309c16.747664-19.140187 35.88785-28.71028 57.420561-28.71028h2.392524c35.88785 0 64.598131 28.71028 64.59813 28.71028l239.252337 239.252337v4.785047c9.570093 28.71028 7.17757 52.635514-9.570094 64.59813z"  horiz-adv-x="1094" />

    
    <glyph glyph-name="my_Agreement" unicode="&#58906;" d="M746.248366 705.254902v-645.856209c0-63.581699-53.542484-117.124183-117.124183-117.124183H184.052288c-63.581699 0-117.124183 53.542484-117.124183 117.124183V708.601307C66.928105 772.183007 120.470588 825.72549 184.052288 825.72549h441.72549c66.928105 0 120.470588-53.542484 120.470588-120.470588z m0-813.176471l-73.620915-16.732026h207.477124c73.620915 0 137.202614 60.235294 137.202615 137.202615V554.666667c0 73.620915-60.235294 137.202614-137.202615 137.202614h-66.928104V758.797386c0 73.620915-60.235294 137.202614-137.202615 137.202614H137.202614C60.235294 892.653595 0 832.418301 0 755.45098v-746.248366c0-73.620915 60.235294-137.202614 137.202614-137.202614h542.117647c23.424837 3.346405 46.849673 10.039216 66.928105 20.078431z m204.130719 167.320262c0-63.581699-53.542484-117.124183-117.124183-117.124183h-36.810458c10.039216 20.078431 16.732026 43.503268 16.732027 66.928104V621.594771h16.732026c63.581699 0 117.124183-53.542484 117.124183-117.124183v-445.071895zM204.130719 163.137255c0-20.078431 16.732026-16.732026 33.464052-16.732026h337.986928c20.078431 0 33.464052-3.346405 33.464053 16.732026s-16.732026 50.196078-33.464053 50.196078H237.594771c-20.078431 0-33.464052-30.117647-33.464052-50.196078z m0 204.130719c0-20.078431 16.732026-16.732026 33.464052-16.732026h337.986928c20.078431 0 33.464052-3.346405 33.464053 16.732026s-16.732026 50.196078-33.464053 50.196078H237.594771c-20.078431 0-33.464052-30.117647-33.464052-50.196078z m0 204.130719c0-20.078431 16.732026-16.732026 33.464052-16.732026h337.986928c20.078431 0 33.464052-3.346405 33.464053 16.732026s-16.732026 50.196078-33.464053 50.196078H237.594771c-20.078431 0-33.464052-33.464052-33.464052-50.196078z m0 0"  horiz-adv-x="1024" />

    
    <glyph glyph-name="list_allot" unicode="&#58907;" d="M919.272727 17.454545v-29.090909c0-61.090909-162.909091-116.363636-162.909091-116.363636l-66.909091 8.727273s-107.636364 14.545455-177.454545 14.545454c-66.909091 0-177.454545-14.545455-177.454545-14.545454l-66.909091-8.727273S104.727273-75.636364 104.727273-11.636364v29.090909c0 58.181818 75.636364 116.363636 162.909091 160 2.909091 2.909091 58.181818-296.727273 58.181818-296.727272h23.272727S302.545455 192 308.363636 192c23.272727 11.636364 40.727273 20.363636 64 29.090909 8.727273 2.909091 52.363636 26.181818 29.090909 87.272727C346.181818 369.454545 308.363636 424.727273 308.363636 546.909091h410.181819c0-122.181818-37.818182-177.454545-93.09091-232.727273-23.272727-69.818182 14.545455-87.272727 20.363637-90.181818 23.272727-8.727273 46.545455-20.363636 72.727273-29.090909 5.818182-2.909091-40.727273-311.272727-40.727273-311.272727h26.181818s49.454545 299.636364 55.272727 296.727272c84.363636-46.545455 160-101.818182 160-162.909091zM744.727273 674.909091C744.727273 817.454545 552.727273 887.272727 552.727273 887.272727c-26.181818 11.636364-55.272727 8.727273-81.454546 0C471.272727 887.272727 279.272727 826.181818 279.272727 674.909091c0-23.272727-40.727273-17.454545-55.272727-87.272727h576C773.818182 657.454545 744.727273 654.545455 744.727273 674.909091z m0 0"  horiz-adv-x="1024" />

    
    <glyph glyph-name="list_estimate_light" unicode="&#58908;" d="M811.044207-125.778742c-13.327549 0-26.655098 2.221258-39.982647 11.106291L555.599521-1.388286c-4.442516 2.221258-13.327549 4.442516-22.212581 4.442516-6.663774 0-15.548807-2.221258-22.212582-4.442516l-213.240781-113.284165c-13.327549-6.663774-26.655098-11.106291-39.982646-11.106291-26.655098 0-51.088937 11.106291-66.637744 31.097614-17.770065 19.991323-24.433839 44.425163-19.991323 71.08026l42.203904 237.674621c2.221258 15.548807-2.221258 28.876356-13.327548 39.982646l-173.258135 166.59436c-24.433839 24.433839-33.318872 57.752711-22.212581 88.850326s37.761388 53.310195 71.08026 59.973969l237.67462 35.54013c15.548807 2.221258 28.876356 11.106291 35.540131 24.43384l106.62039 217.683297C471.191712 878.229935 500.068068 896 533.38694 896s62.195228-17.770065 77.744034-48.867679l106.620391-217.683297c6.663774-13.327549 19.991323-22.212581 35.54013-24.43384l237.67462-35.54013c33.318872-4.442516 59.97397-26.655098 71.080261-57.752711 11.106291-31.097614 2.221258-66.637744-22.212582-88.850326l-171.036876-168.815618c-11.106291-11.106291-15.548807-26.655098-13.327549-39.982646l39.982647-237.674621c4.442516-26.655098-2.221258-51.088937-19.991324-71.08026-15.548807-19.991323-39.982646-31.097614-64.416485-31.097614z m0 0"  horiz-adv-x="1066" />

    
    <glyph glyph-name="home_icon1" unicode="&#58909;" d="M166.654611-126.148282C149.98915-122.444846 99.992767-98.372514 99.992767 5.323689V255.305606S116.658228 401.59132 190.726944 507.139241l1.851718 3.703435h159.247739l3.703436-1.851718c31.479204-20.368897 49.996383-42.589512 55.551537-70.36528 7.406872-25.924051 1.851718-55.551537-16.665461-87.030741 14.813743-7.406872 161.099458-68.513562 246.278481-107.399639 62.958409-27.775769 103.696203-64.810127 120.361664-109.251356 16.665461-44.44123 11.110307-98.141049-16.665461-161.099457-5.555154-12.962025-29.627486-64.810127-61.106691-98.141049l-1.851718-1.851718H166.654611z m487.001809 57.403255c16.665461 24.072333 31.479204 51.848101 35.18264 62.958409v1.851717c22.220615 46.292948 25.924051 85.179024 14.813743 114.80651-11.110307 29.627486-40.737794 55.551537-88.882459 75.920434-79.62387 35.18264-216.650995 94.437613-242.575046 105.547921l-64.810126 27.775768 35.18264 55.551537c16.665461 27.775769 11.110307 40.737794 11.110307 40.737794v1.851718c-3.703436 11.110307-11.110307 20.368897-16.665461 25.924051l-3.703436 3.703436H224.057866c-51.848101-87.030741-64.810127-187.023508-66.661844-198.133816v-246.278481c0-35.18264 7.406872-55.551537 14.813743-64.810127l5.555154-5.555153 475.891501-1.851718z m-137.027125 525.887884c-3.703436 0-12.962025 1.851718-31.479205 16.665461h-1.851717v1.851718c-9.25859 18.517179-53.699819 99.992767-94.437614 103.696203h-1.851717c-3.703436 0-7.406872 5.555154-9.25859 11.110307-1.851718 9.25859 3.703436 29.627486 46.292948 68.513562l1.851718 1.851718h35.18264v-7.406871c1.851718-29.627486 14.813743-127.768535 62.958408-161.099458l1.851718-1.851718v-3.703435c1.851718-12.962025 1.851718-20.368897 0-25.924051-3.703436-3.703436-7.406872-3.703436-9.258589-3.703436zM199.985533 529.359855v75.920434c-7.406872 18.517179-29.627486 61.106691-88.882459 72.216999H105.54792V710.82821S131.471971 792.303797 211.095841 827.486438H466.632911v-127.768536h-20.368897c-12.962025-7.406872-68.513562-38.886076-92.585895-105.54792v-64.810127H199.985533z m92.585896 57.403255v16.665461l3.703435 9.25859c14.813743 40.737794 40.737794 77.772152 75.920434 107.399638 12.962025 11.110307 25.924051 20.368897 35.182641 25.924051V771.934901H225.909584C207.392405 762.676311 190.726944 747.862568 177.764919 729.345389l-7.406872-9.25859v-1.851718h1.851718C220.35443 692.311031 248.130199 651.573237 255.537071 623.797468l1.851717-9.258589v-25.924051l35.182641-1.851718z m592.549728 38.886076c-18.517179 0-35.18264 16.665461-35.18264 35.18264 0 18.517179 16.665461 35.18264 35.18264 35.182641 18.517179 0 35.18264-16.665461 35.18264-35.182641 0-20.368897-16.665461-35.18264-35.18264-35.18264z m-85.179023 49.996384c-18.517179 0-33.330922 14.813743-33.330922 33.330922s14.813743 33.330922 33.330922 33.330922 33.330922-14.813743 33.330922-33.330922c-1.851718-18.517179-16.665461-33.330922-33.330922-33.330922z m-312.940326 24.072332v129.620254h49.996384l18.517179-24.072333v-83.327306l-24.072333-22.220615h-44.44123z m399.971067 18.517179c-18.517179 0-35.18264 14.813743-35.18264 35.182641 0 18.517179 14.813743 35.18264 35.18264 35.18264 18.517179 0 35.18264-14.813743 35.18264-35.18264 0-20.368897-14.813743-35.18264-35.18264-35.182641z m-164.802893 1.851718c-16.665461 0-31.479204 14.813743-31.479204 31.479205 0 16.665461 12.962025 31.479204 31.479204 31.479204 16.665461 0 31.479204-14.813743 31.479204-31.479204-1.851718-16.665461-14.813743-31.479204-31.479204-31.479205z m79.62387 61.106691c-18.517179 0-33.330922 14.813743-33.330923 33.330922s14.813743 33.330922 33.330923 33.330923 33.330922-14.813743 33.330922-33.330923-14.813743-33.330922-33.330922-33.330922z m85.179023 44.44123c-18.517179 0-35.18264 14.813743-35.18264 35.18264 0 18.517179 14.813743 35.18264 35.18264 35.18264 18.517179 0 35.18264-14.813743 35.18264-35.18264 0-20.368897-14.813743-35.18264-35.18264-35.18264z m0 0"  horiz-adv-x="1024" />

    
    <glyph glyph-name="my_pay" unicode="&#58910;" d="M919.218605-128h-790.623256c-71.44186 0-128.595349 57.153488-128.595349 128.595349v766.809302c0 71.44186 57.153488 128.595349 128.595349 128.595349h795.386046c71.44186 0 128.595349-57.153488 128.595349-128.595349v-123.832558c0-23.813953-19.051163-42.865116-42.865116-42.865116s-42.865116 19.051163-42.865116 42.865116v123.832558c0 23.813953-19.051163 42.865116-42.865117 42.865116h-795.386046c-23.813953 0-42.865116-19.051163-42.865116-42.865116v-769.190698c0-23.813953 19.051163-42.865116 42.865116-42.865116h793.004651c23.813953 0 42.865116 19.051163 42.865116 42.865116V129.190698c0 23.813953 19.051163 42.865116 42.865117 42.865116s42.865116-19.051163 42.865116-42.865116v-130.976745c-2.381395-69.060465-59.534884-126.213953-130.976744-126.213953zM778.716279 386.381395c0 11.906977-4.762791 21.432558-11.906977 28.576745-7.144186 7.144186-19.051163 11.906977-28.576744 11.906976-11.906977 0-21.432558-4.762791-28.576744-11.906976-7.144186-7.144186-11.906977-19.051163-11.906977-28.576745 0-11.906977 4.762791-21.432558 11.906977-28.576744 7.144186-7.144186 19.051163-11.906977 28.576744-11.906977 11.906977 0 21.432558 4.762791 28.576744 11.906977 7.144186 7.144186 11.906977 16.669767 11.906977 28.576744zM1059.72093 217.302326H619.162791c-40.483721 0-76.204651 33.339535-76.204651 76.204651v188.130232c0 40.483721 33.339535 76.204651 76.204651 76.204651h440.558139c40.483721 0 76.204651-33.339535 76.204651-76.204651v-188.130232c0-42.865116-35.72093-76.204651-76.204651-76.204651z m-433.413953 80.967441h426.269767v173.841861h-426.269767v-173.841861z"  horiz-adv-x="1135" />

    
    <glyph glyph-name="my_faq" unicode="&#58911;" d="M983.564603 582.198994C901.050794 776.931583 706.318205 902.352573 495.082854 895.751468S99.016571 753.827717 29.704971 552.494023c-69.3116-198.033142-9.901657-422.470702 151.825409-557.793349 161.727066-138.623199 389.465178-161.727066 574.29611-59.409942 23.103867 13.202209 29.704971 39.606628 16.502762 59.409942-13.202209 23.103867-39.606628 29.704971-59.409942 16.502762-62.710495-33.005524-132.022094-49.508285-201.333694-49.508285-231.038665 0-422.470702 188.131484-422.470702 422.470702 0 234.339217 188.131484 422.470702 422.470702 422.470702 231.038665 0 422.470702-188.131484 422.470702-422.470702 0-102.317123-36.306076-198.033142-102.317124-273.945846-16.502762-19.803314-13.202209-46.207733 3.300553-62.710495 19.803314-16.502762 46.207733-13.202209 62.710495 3.300552 128.721542 145.224304 158.426513 353.159102 85.814361 531.38893z m-429.071807-287.148055c85.814361 19.803314 151.825409 99.016571 151.825409 191.432037 0 108.918228-89.114914 198.033142-198.033142 198.033141s-198.033142-89.114914-198.033141-198.033141c0-23.103867 19.803314-46.207733 46.207733-46.207733 23.103867 0 46.207733 19.803314 46.207733 46.207733 0 59.409942 49.508285 108.918228 108.918228 108.918228 59.409942 0 108.918228-49.508285 108.918227-108.918228 0-59.409942-49.508285-108.918228-108.918227-108.918228-23.103867 0-46.207733-19.803314-46.207733-46.207733v-72.612152c0-16.502762 9.901657-29.704971 23.103866-39.606628 13.202209-6.601105 29.704971-6.601105 46.207733 0 13.202209 6.601105 23.103867 23.103867 23.103867 39.606628l-3.300553 36.306076z m-42.90718-122.120437c-23.103867 0-46.207733-19.803314-46.207733-46.207733 0-23.103867 19.803314-46.207733 46.207733-46.207733 23.103867 0 46.207733 19.803314 46.207733 46.207733-3.300552 26.404419-23.103867 46.207733-46.207733 46.207733z m0 0"  horiz-adv-x="1024" />

    
    <glyph glyph-name="my_service" unicode="&#58912;" d="M155.009174 17.614679c-68.110092 0-143.266055 56.366972-143.266055 124.477064v716.330275c0 14.091743 11.743119 25.834862 25.834863 25.834863h772.697247c68.110092 0 124.477064-75.155963 124.477065-143.266055 0-14.091743-11.743119-25.834862-25.834863-25.834863-14.091743 0-25.834862 11.743119-25.834862 25.834863 0 39.926606-32.880734 91.59633-72.80734 91.59633h-746.862385v-690.495413c0-39.926606 51.669725-72.807339 91.59633-72.807339 14.091743 0 25.834862-11.743119 25.834863-25.834863 0-14.091743-11.743119-25.834862-25.834863-25.834862zM1047.486239-116.256881h-850.201835c-14.091743 0-25.834862 11.743119-25.834863 25.834863v793.834862c0 14.091743 11.743119 25.834862 25.834863 25.834862h850.201835c14.091743 0 25.834862-11.743119 25.834862-25.834862v-793.834862c0-14.091743-9.394495-25.834862-25.834862-25.834863z m-824.366973 51.669725h798.53211v742.165138h-798.53211v-742.165138zM627.082569 59.889908c-7.045872 0-14.091743 2.348624-18.788991 7.045872l-213.724771 213.72477c-23.486239 23.486239-37.577982 54.018349-37.577981 86.899083 0 32.880734 14.091743 65.761468 37.577981 89.247706s54.018349 37.577982 86.899083 37.577982c32.880734 0 65.761468-14.091743 89.247706-37.577982l56.366973-56.366972 56.366972 56.366972c23.486239 23.486239 54.018349 37.577982 86.899083 37.577982 32.880734 0 65.761468-14.091743 89.247706-37.577982s37.577982-54.018349 37.577982-89.247706c0-32.880734-14.091743-65.761468-37.577982-89.247706l-213.72477-213.724771c-7.045872-2.348624-14.091743-4.697248-18.788991-4.697248z m-145.614679 382.825688c-18.788991 0-37.577982-7.045872-51.669725-21.137614-14.091743-14.091743-21.137615-32.880734-21.137615-51.669725 0-18.788991 7.045872-37.577982 21.137615-51.669725l194.93578-194.93578 194.93578 194.93578c14.091743 14.091743 21.137615 32.880734 21.137614 51.669725 0 18.788991-7.045872 37.577982-21.137614 51.669725-14.091743 14.091743-32.880734 21.137615-51.669725 21.137614s-37.577982-7.045872-51.669725-21.137614l-75.155963-75.155964c-9.394495-9.394495-25.834862-9.394495-37.577982 0l-75.155963 75.155964c-9.394495 11.743119-28.183486 21.137615-46.972477 21.137614z"  horiz-adv-x="1085" />

    
    <glyph glyph-name="photo" unicode="&#58913;" d="M1076.825397-125.968254H101.587302c-56.888889 0-101.587302 46.730159-101.587302 101.587302v690.79365c0 56.888889 46.730159 101.587302 101.587302 101.587302h217.396825l65.015873 101.587302c0 14.222222 36.571429 26.412698 50.793651 26.412698h306.793651c14.222222 0 50.793651-12.190476 50.79365-26.412698l65.015873-101.587302H1076.825397c56.888889 0 101.587302-46.730159 101.587301-101.587302v-690.79365c0-56.888889-46.730159-101.587302-101.587301-101.587302m-487.619048 792.380952c-184.888889 0-333.206349-148.31746-333.206349-331.174603S404.31746 4.063492 589.206349 4.063492c184.888889 0 333.206349 148.31746 333.206349 331.174603 0 180.825397-148.31746 331.174603-333.206349 331.174603M589.206349 103.619048c-128 0-229.587302 103.619048-229.587301 229.587301 0 128 103.619048 229.587302 229.587301 229.587302 128 0 229.587302-103.619048 229.587302-229.587302 0-125.968254-101.587302-229.587302-229.587302-229.587301m0 0"  horiz-adv-x="1178" />

    
    <glyph glyph-name="my_refund" unicode="&#58914;" d="M704.300469 249.389671c-4.807512 16.826291-16.826291 28.84507-31.248826 31.248827l-103.361502 103.361502 108.169014 108.169014c16.826291 16.826291 16.826291 45.671362 0 62.497653-16.826291 16.826291-45.671362 16.826291-62.497653 0l-115.380281-115.380282c-14.422535-14.422535-24.037559-36.056338-24.037559-55.286385 0-21.633803 9.615023-40.86385 24.037559-55.286385l115.380281-115.380282c7.211268-7.211268 14.422535-9.615023 24.037559-12.018779 7.211268-4.807512 16.826291-7.211268 24.037559-7.211268s14.422535 2.403756 21.633803 4.807512c16.826291 9.615023 24.037559 31.248826 19.230046 50.478873zM1050.441315 633.99061c-14.422535 7.211268-31.248826 7.211268-43.267606 0-14.422535-7.211268-21.633803-21.633803-21.633803-38.460094 0-91.342723-74.516432-165.859155-165.859155-165.859154h-283.643192c-14.422535 0-31.248826-7.211268-38.460094-21.633803-7.211268-14.422535-7.211268-31.248826 0-43.267606 7.211268-14.422535 21.633803-21.633803 38.460094-21.633803h281.239436c139.41784 0 254.798122 115.380282 254.798122 254.798122 0 12.018779-9.615023 26.441315-21.633802 36.056338zM1007.173709 557.070423c14.422535-7.211268 31.248826-7.211268 43.267606 0 14.422535 7.211268 21.633803 21.633803 21.633802 38.460093v117.784038c0 100.957746-81.7277 182.685446-182.685446 182.685446h-704.300469c-103.361502 0-185.089202-81.7277-185.089202-185.089202v-653.821596c0-100.957746 81.7277-185.089202 185.089202-185.089202h718.723005c93.746479 0 170.666667 76.920188 170.666666 170.666667v108.169014c0 14.422535-7.211268 31.248826-21.633803 38.460094-14.422535 7.211268-31.248826 7.211268-43.267605 0-16.826291-7.211268-24.037559-24.037559-24.037559-38.460094v-108.169014c0-45.671362-36.056338-81.7277-81.727699-81.7277h-718.723005c-52.882629 0-96.150235 43.267606-96.150235 96.150235v653.821596c0 52.882629 43.267606 96.150235 96.150235 96.150235h704.300469c52.882629 0 93.746479-43.267606 93.746479-93.746479v-117.784038c2.403756-16.826291 9.615023-31.248826 24.037559-38.460093z"  horiz-adv-x="1074" />

    
    <glyph glyph-name="public_delete" unicode="&#58915;" d="M512 896c-281.6 0-512-230.4-512-512s230.4-512 512-512 512 230.4 512 512-230.4 512-512 512z m288-560h-576v96h576v-96z"  horiz-adv-x="1024" />

    
    <glyph glyph-name="public_sad" unicode="&#58916;" d="M512 896C228.519774 896 0 667.480226 0 384c0-283.480226 228.519774-512 512-512 283.480226 0 512 228.519774 512 512C1024 667.480226 795.480226 896 512 896zM191.879473 447.638418c0 36.640301 27.962335 63.638418 63.638418 63.638418 36.640301 0 63.638418-27.962335 63.638418-63.638418 0-36.640301-27.962335-63.638418-63.638418-63.638418-35.676083 0-63.638418 27.962335-63.638418 63.638418zM736.6629 86.056497c-6.749529-8.677966-16.391714-13.499058-27.962335-13.499058-7.713748 0-14.463277 2.892655-19.284369 5.785311l-0.964219 0.964218-0.964218 0.964218c-54.960452 40.497175-107.028249 59.781544-175.487759 59.781545s-120.527307-18.320151-175.487759-59.781545c-6.749529-4.821092-16.391714-7.713748-26.033898-5.78531-9.642185 0.964218-18.320151 5.785311-23.141243 13.499058-11.570621 14.463277-7.713748 38.568738 6.749529 50.13936 69.423729 51.103578 132.097928 73.280603 217.913371 73.280602 85.815443 0 148.489642-22.177024 217.913371-73.280602 8.677966-5.785311 14.463277-14.463277 15.427495-24.105462 0-11.570621-2.892655-21.212806-8.677966-27.962335z m30.854991 296.979285c-36.640301 0-63.638418 27.962335-63.638418 63.638418 0 36.640301 27.962335 63.638418 63.638418 63.638418 36.640301 0 63.638418-27.962335 63.638418-63.638418 0-35.676083-27.962335-63.638418-63.638418-63.638418z"  horiz-adv-x="1024" />

    
    <glyph glyph-name="public_Close" unicode="&#58917;" d="M512 482.133333L119.466667 874.666667C93.866667 900.266667 46.933333 900.266667 21.333333 874.666667c-25.6-25.6-25.6-72.533333 0-98.133334L413.866667 384 21.333333-8.533333c-25.6-25.6-25.6-72.533333 0-98.133334 25.6-25.6 72.533333-25.6 98.133334 0l392.533333 392.533334 392.533333-392.533334c25.6-25.6 72.533333-25.6 98.133334 0 25.6 25.6 25.6 72.533333 0 98.133334L610.133333 384l392.533334 392.533333c25.6 25.6 25.6 72.533333 0 98.133334-25.6 25.6-72.533333 25.6-98.133334 0L512 482.133333z m0 0"  horiz-adv-x="1024" />

    
    <glyph glyph-name="public_address" unicode="&#58918;" d="M506.414545 896C331.403636 896 193.629091 754.501818 193.629091 579.490909 193.629091 408.203636 361.192727 188.509091 510.138182 9.774545c141.498182 182.458182 316.509091 394.705455 316.509091 569.716364-3.723636 175.010909-145.221818 316.509091-320.232728 316.509091z m0-525.032727c-115.432727 0-208.523636 93.090909-208.523636 208.523636 0 115.432727 93.090909 208.523636 208.523636 208.523636 115.432727 0 208.523636-93.090909 208.523637-208.523636 3.723636-115.432727-93.090909-208.523636-208.523637-208.523636z m0 0M387.258182 579.490909c0-33.512727 14.894545-63.301818 33.512727-85.643636 22.341818-22.341818 55.854545-33.512727 85.643636-33.512728 33.512727 0 63.301818 14.894545 85.643637 33.512728 22.341818 22.341818 33.512727 55.854545 33.512727 85.643636 0 33.512727-14.894545 63.301818-33.512727 85.643636-22.341818 22.341818-55.854545 33.512727-85.643637 33.512728-33.512727 0-63.301818-14.894545-85.643636-33.512728-18.618182-22.341818-33.512727-52.130909-33.512727-85.643636z m0 0M510.138182-128c-201.076364 0-409.6 63.301818-409.6 186.181818 0 67.025455 67.025455 122.88 186.181818 160.116364 22.341818 3.723636 44.683636-3.723636 48.407273-26.065455 3.723636-22.341818-3.723636-44.683636-26.065455-48.407272-89.367273-26.065455-130.327273-59.578182-130.327273-85.643637 0-44.683636 130.327273-107.985455 331.403637-107.985454s331.403636 63.301818 331.403636 107.985454c0 26.065455-48.407273 63.301818-137.774545 85.643637-22.341818 3.723636-33.512727 26.065455-26.065455 48.407272 3.723636 22.341818 26.065455 33.512727 48.407273 26.065455 122.88-33.512727 197.352727-93.090909 197.352727-163.84-7.447273-119.156364-212.247273-182.458182-413.323636-182.458182z m0 0"  horiz-adv-x="1024" />

    
    <glyph glyph-name="public_fail" unicode="&#58919;" d="M512 896C229.483992 896 0 666.516008 0 384s229.483992-512 512-512 512 229.483992 512 512C1023.035782 666.516008 793.551789 896 512 896z m202.485876-664.346516c14.463277-14.463277 14.463277-36.640301 0-51.103578s-36.640301-14.463277-51.103578 0L512 333.86064 359.653484 181.514124c-14.463277-14.463277-36.640301-14.463277-51.103578 0s-14.463277 36.640301 0 51.103578L460.896422 384.964218 308.549906 536.346516c-14.463277 14.463277-14.463277 36.640301 0 51.103578s36.640301 14.463277 51.103578 0l152.346516-152.346516L664.346516 587.450094c14.463277 14.463277 36.640301 14.463277 51.103578 0s14.463277-36.640301 0-51.103578L562.13936 384l152.346516-152.346516z m0 0"  horiz-adv-x="1024" />

    
    <glyph glyph-name="public_unselect" unicode="&#58920;" d="M512 896C229.052632 896 0 666.947368 0 384s229.052632-512 512-512 512 229.052632 512 512S794.947368 896 512 896z m0-937.768421c-234.442105 0-425.768421 191.326316-425.768421 425.768421S277.557895 809.768421 512 809.768421 937.768421 618.442105 937.768421 384s-188.631579-425.768421-425.768421-425.768421z"  horiz-adv-x="1024" />

    
    <glyph glyph-name="public_success" unicode="&#58921;" d="M512 896C229.483992 896 0 666.516008 0 384s229.483992-512 512-512 512 229.483992 512 512C1023.035782 666.516008 794.516008 896 512 896zM819.585687 527.66855L465.717514 166.086629c-0.964218-1.928437-2.892655-3.856874-3.856874-4.821092-13.499058-14.463277-36.640301-14.463277-50.139359 0L235.269303 338.681733c-13.499058 14.463277-13.499058 36.640301 0 51.103578s36.640301 14.463277 50.13936 0l150.418079-152.346516L769.446328 577.80791c13.499058 14.463277 36.640301 14.463277 50.139359 0 14.463277-13.499058 14.463277-36.640301 0-50.13936z m0 0"  horiz-adv-x="1024" />

    
    <glyph glyph-name="public_Warning" unicode="&#58922;" d="M512 895.034873C229.217719 895.034873 0.482564 666.299717 0.482564 384.482564c0-282.782281 228.735156-511.517436 511.517436-511.517437s511.517436 228.735156 511.517436 511.517437C1022.552309 666.299717 793.817154 895.034873 512 895.034873z m-43.430726-270.235627c0 23.163054 18.337418 41.500471 40.535344 41.500471 22.197926 0 40.535344-18.337418 40.535344-41.500471v-311.736098c0-23.163054-18.337418-41.500471-40.535344-41.500471-22.197926 0-40.535344 18.337418-40.535344 41.500471V624.799246z m40.535344-523.098963c-31.849199 0-57.907634 26.058435-57.907634 58.872761 0 32.814326 26.058435 58.872762 57.907634 58.872762s57.907634-26.058435 57.907635-58.872762c0-32.814326-25.093308-58.872762-57.907635-58.872761z m0 0"  horiz-adv-x="1024" />

    
    <glyph glyph-name="public_select" unicode="&#58923;" d="M510.656168 896C228.451444 896 0 667.548556 0 385.343832s228.451444-510.656168 510.656168-510.656168 510.656168 228.451444 510.656168 510.656168S792.860892 896 510.656168 896z m276.829396-424.650919L486.467192 170.330709c-8.062992-8.062992-18.813648-13.43832-29.564305-13.438321-10.750656 0-21.501312 5.375328-29.564304 13.438321l-150.509187 150.509186c-16.125984 16.125984-16.125984 43.002625 0 59.128609 16.125984 16.125984 43.002625 16.125984 59.128609 0l120.944882-120.944882 271.454068 271.454068c16.125984 16.125984 43.002625 16.125984 59.128609 0 16.125984-16.125984 16.125984-43.002625 0-59.128609z"  horiz-adv-x="1024" />

    
    <glyph glyph-name="public_more" unicode="&#58924;" d="M295.314697-128c-14.115474 0-32.936106 4.705158-47.05158 14.115474l-4.705158 4.705158c-14.115474 14.115474-18.820632 28.230948-18.820632 47.05158s4.705158 32.936106 18.820632 47.05158l390.528113 395.23327L243.557959 775.390333c-14.115474 9.410316-18.820632 28.230948-18.820632 47.05158S229.442485 855.378019 243.557959 869.493493L248.263117 874.19865c28.230948 28.230948 65.872212 28.230948 94.10316 4.705158l437.579692-446.990008c23.52579-23.52579 23.52579-70.57737 0-94.10316l-437.579692-446.990008c-14.115474-14.115474-32.936106-18.820632-47.05158-18.820632z"  horiz-adv-x="1024" />

    
    <glyph glyph-name="tab_home_select" unicode="&#58925;" d="M1046.782201 490.716628l-456.843091 376.505854c-25.180328 20.384075-43.166276 28.777518-61.152225 28.777518s-35.971897-8.393443-61.152225-28.777518l-456.843091-376.505854c-7.194379-5.995316-10.791569-14.388759-10.791569-23.981265 0-16.786885 14.388759-31.175644 31.175644-31.175644 7.194379 0 14.388759 2.398126 20.384075 7.194379l34.772834 28.777518V-15.288056c0-61.152225 43.166276-110.313817 97.124121-110.313818h694.257612c53.957845 0 97.124122 50.360656 97.124121 110.313818v480.824356l28.777518-23.981265c5.995316-4.796253 11.990632-7.194379 20.384075-7.194379 16.786885 0 31.175644 14.388759 31.175644 31.175644 2.398126 9.592506-2.398126 19.185012-8.393443 25.180328z m-659.484777-241.01171l53.957845 28.777518 91.128806 15.587822 112.711944-15.587822 41.967213-41.967214v-305.761124h-318.95082l19.185012 318.95082zM719.437939-104.018735h-56.355972v297.367681c0 34.772834-38.370023 68.346604-77.93911 68.346604h-109.114754c-39.569087 0-77.93911-33.57377-77.93911-68.346604v-298.566745h-56.355972v310.557377c0 64.749415 64.749415 112.711944 122.30445 112.711944h133.096018c57.555035 0 122.30445-47.962529 122.30445-112.711944v-309.358313z"  horiz-adv-x="1064" />

    
    <glyph glyph-name="tab_home_unselect" unicode="&#58926;" d="M719.437939-104.018735h-56.355972v297.367681c0 34.772834-38.370023 68.346604-77.93911 68.346604h-109.114754c-39.569087 0-77.93911-33.57377-77.93911-68.346604v-298.566745h-56.355972v310.557377c0 64.749415 64.749415 112.711944 122.30445 112.711944h133.096018c57.555035 0 122.30445-47.962529 122.30445-112.711944v-309.358313zM878.913349-126.800937h-694.257611c-53.957845 0-97.124122 49.161593-97.124122 110.313818v553.967213h56.355972v-541.976581c0-35.971897 35.971897-65.948478 64.749414-65.948478h658.285715c28.777518 0 52.758782 29.976581 52.758782 65.948478v541.976581h56.355972v-553.967213c1.199063-59.953162-43.166276-110.313817-97.124122-110.313818zM589.93911 867.222482c-25.180328 20.384075-43.166276 28.777518-61.152225 28.777518s-35.971897-8.393443-61.152225-28.777518l-456.843091-376.505854c-7.194379-5.995316-10.791569-14.388759-10.791569-23.981265 0-16.786885 14.388759-31.175644 31.175644-31.175644 7.194379 0 14.388759 2.398126 20.384075 7.194379l443.653396 366.913349c16.786885 14.388759 23.981265 17.985948 33.57377 17.985949s15.587822-4.796253 33.573771-17.985949l443.653396-366.913349c5.995316-4.796253 11.990632-7.194379 20.384074-7.194379 16.786885 0 31.175644 14.388759 31.175644 31.175644 0 9.592506-4.796253 17.985948-10.791569 23.981265l-456.843091 376.505854z"  horiz-adv-x="1064" />

    
    <glyph glyph-name="tab_my_unselect" unicode="&#58927;" d="M510.892808 208.131301c-189.674091 0-343.334115 153.660023-343.334115 343.334115 0 190.87456 153.660023 344.534584 343.334115 344.534584s343.334115-153.660023 343.334114-343.334115c0-190.87456-153.660023-344.534584-343.334114-344.534584z m0 620.642439c-152.459555 0-274.907386-123.6483-274.907386-274.907386 0-152.459555 123.6483-274.907386 274.907386-274.907386s274.907386 123.6483 274.907385 274.907386c0 73.228605-28.811254 142.855803-80.431418 194.475967-51.620164 51.620164-121.247362 81.631887-194.475967 80.431419zM69.12024-126.799531h-3.601407c-18.007034 1.200469-32.412661 18.007034-30.011723 36.014068 13.205158 182.471278 129.650645 340.933177 298.916764 410.560375 16.806565 6.002345 34.813599-2.400938 42.016413-18.007034s1.200469-34.813599-14.405627-43.216882c-147.657679-58.822978-248.497069-196.876905-259.30129-355.338804-2.400938-16.806565-16.806565-30.011723-33.61313-30.011723z m883.545135 0c-16.806565 0-31.212192 13.205158-33.61313 30.011723-9.603751 112.84408-66.025791 217.284877-156.060962 288.112544-7.202814 8.403283-12.004689 20.407972-8.403282 32.412661 2.400938 12.004689 10.80422 21.608441 22.80891 25.209848 12.004689 3.601407 24.009379 1.200469 33.61313-7.202814 103.240328-81.631887 166.865182-201.678781 177.669402-332.529894 1.200469-18.007034-12.004689-34.813599-30.011723-36.014068h-6.002345z"  horiz-adv-x="1024" />

    
    <glyph glyph-name="tab_shopping_select" unicode="&#58928;" d="M939.692308 722.461538h-740.923077c-12.307692 57.846154-19.692308 96-19.692308 102.153847 0 32-19.692308 51.692308-38.153846 64-19.692308 6.153846-32 6.153846-38.153846 6.153846h-70.153846c-19.692308 0-32-12.307692-32-30.769231 0-19.692308 12.307692-32 32-32h76.307692s6.153846 0 6.153846-12.307692c6.153846-38.153846 102.153846-644.923077 108.307692-683.076923 0-6.153846 6.153846-19.692308 12.307693-38.153847 19.692308-19.692308 38.153846-38.153846 82.461538-38.153846h593.230769c19.692308 0 32 12.307692 32 32s-12.307692 32-32 32h-592c-6.153846 0-19.692308 0-25.846153 6.153846l-6.153847 6.153847v6.153846s-6.153846 25.846154-12.307692 64h587.076923c51.692308 0 82.461538 25.846154 96 70.153846l64 363.076923v6.153846c0 38.153846-38.153846 76.307692-82.461538 76.307692zM853.538462 6.153846c-36.923077 0-66.461538-29.538462-66.461539-66.461538s29.538462-66.461538 66.461539-66.461539 66.461538 29.538462 66.461538 66.461539-29.538462 66.461538-66.461538 66.461538zM324.307692 6.153846c-36.923077 0-66.461538-29.538462-66.461538-66.461538s29.538462-66.461538 66.461538-66.461539 66.461538 29.538462 66.461539 66.461539c-1.230769 36.923077-30.769231 66.461538-66.461539 66.461538z"  horiz-adv-x="1024" />

    
    <glyph glyph-name="tab_my_select" unicode="&#58930;" d="M510.892808 896c-189.674091 0-343.334115-153.660023-343.334115-344.534584 0-189.674091 153.660023-343.334115 343.334115-343.334115s343.334115 153.660023 343.334114 343.334115c0 190.87456-153.660023 344.534584-343.334114 344.534584zM69.12024-126.799531h-3.601407c-18.007034 1.200469-32.412661 18.007034-30.011723 36.014068 13.205158 182.471278 129.650645 340.933177 298.916764 410.560375 16.806565 6.002345 34.813599-2.400938 42.016413-18.007034 7.202814-15.606096 1.200469-34.813599-14.405627-43.216882-147.657679-58.822978-248.497069-196.876905-259.30129-355.338804-2.400938-16.806565-16.806565-30.011723-33.61313-30.011723z m883.545135 0c-16.806565 0-31.212192 13.205158-33.61313 30.011723-9.603751 112.84408-66.025791 217.284877-156.060962 288.112544-7.202814 8.403283-12.004689 20.407972-8.403282 32.412661 2.400938 12.004689 10.80422 21.608441 22.80891 25.209848 12.004689 3.601407 24.009379 1.200469 33.61313-7.202814 103.240328-81.631887 166.865182-201.678781 177.669402-332.529894 1.200469-18.007034-12.004689-34.813599-30.011723-36.014068h-6.002345z"  horiz-adv-x="1024" />

    
    <glyph glyph-name="tab_shopping_unselec" unicode="&#58929;" d="M939.692308 722.461538h-740.923077c-12.307692 57.846154-19.692308 96-19.692308 102.153847 0 32-19.692308 51.692308-38.153846 64-19.692308 6.153846-32 6.153846-38.153846 6.153846h-70.153846c-19.692308 0-32-12.307692-32-30.769231 0-19.692308 12.307692-32 32-32h76.307692s6.153846 0 6.153846-12.307692c6.153846-38.153846 102.153846-644.923077 108.307692-683.076923 0-6.153846 6.153846-19.692308 12.307693-38.153847 19.692308-19.692308 38.153846-38.153846 82.461538-38.153846h593.230769c19.692308 0 32 12.307692 32 32s-12.307692 32-32 32h-592c-6.153846 0-19.692308 0-25.846153 6.153846l-6.153847 6.153847v6.153846s-6.153846 25.846154-12.307692 64h587.076923c51.692308 0 82.461538 25.846154 96 70.153846l64 363.076923v6.153846c0 38.153846-38.153846 76.307692-82.461538 76.307692z m-38.153846-416c-3.692308-20.923077-7.384615-38.153846-32-39.384615h-600.615385c-12.307692 114.461538-44.307692 269.538462-64 391.384615h734.769231c6.153846 0 12.307692-6.153846 19.692307-12.307692l-57.846153-339.692308zM853.538462 6.153846c-36.923077 0-66.461538-29.538462-66.461539-66.461538s29.538462-66.461538 66.461539-66.461539 66.461538 29.538462 66.461538 66.461539-29.538462 66.461538-66.461538 66.461538zM324.307692 6.153846c-36.923077 0-66.461538-29.538462-66.461538-66.461538s29.538462-66.461538 66.461538-66.461539 66.461538 29.538462 66.461539 66.461539c-1.230769 36.923077-30.769231 66.461538-66.461539 66.461538z"  horiz-adv-x="1024" />

    
    <glyph glyph-name="list_unallot1" unicode="&#58931;" d="M512 384m-128 0a128 128 0 1 1 256 0 128 128 0 1 1-256 0ZM1152 384m-128 0a128 128 0 1 1 256 0 128 128 0 1 1-256 0ZM1792 384m-128 0a128 128 0 1 1 256 0 128 128 0 1 1-256 0Z"  horiz-adv-x="2304" />

    


  </font>
</defs>
</svg>
